<svg xmlns="http://www.w3.org/2000/svg" viewBox="0 0 512 512" width="512" height="512">
  <defs>
    <!-- Background Gradient -->
    <linearGradient id="creamBg" x1="0%" y1="0%" x2="100%" y2="100%">
      <stop offset="0%" stop-color="#FFFBF5" />
      <stop offset="100%" stop-color="#F5E8D3" />
    </linearGradient>

    <!-- Chili Gradient -->
    <linearGradient id="chiliRed" x1="0%" y1="0%" x2="100%" y2="100%">
      <stop offset="0%" stop-color="#EF4444" />
      <stop offset="100%" stop-color="#991B1B" />
    </linearGradient>

    <!-- Basil Leaf Gradient -->
    <linearGradient id="basilGreen" x1="0%" y1="0%" x2="100%" y2="100%">
      <stop offset="0%" stop-color="#22C55E" />
      <stop offset="100%" stop-color="#14532D" />
    </linearGradient>

    <!-- Text Green Gradient -->
    <linearGradient id="krapaoTextGreen" x1="0%" y1="0%" x2="0%" y2="100%">
      <stop offset="0%" stop-color="#15803D" />
      <stop offset="100%" stop-color="#052E16" />
    </linearGradient>

    <!-- Soft Drop Shadows -->
    <filter id="softShadow" x="-10%" y="-10%" width="130%" height="130%">
      <feDropShadow dx="0" dy="6" stdDeviation="6" flood-color="#451A03" flood-opacity="0.18" />
    </filter>

    <filter id="panShadow" x="-20%" y="-20%" width="140%" height="140%">
      <feDropShadow dx="2" dy="8" stdDeviation="5" flood-opacity="0.25" />
    </filter>
  </defs>

  <!-- Base Badge Card -->
  <rect width="512" height="512" rx="96" fill="url(#creamBg)" stroke="#E6D3B8" stroke-width="8" />

  <!-- Steam Motion Lines -->
  <g stroke="#334155" stroke-width="4" stroke-linecap="round" opacity="0.7">
    <path d="M 330 90 Q 338 75 330 60 Q 322 45 332 30" fill="none" />
    <path d="M 350 95 Q 360 78 352 62 Q 344 46 354 32" fill="none" />
    <path d="M 370 100 Q 378 85 372 70 Q 366 55 374 40" fill="none" />
  </g>

  <!-- Black Sizzling Wok / Pan (Top Right) -->
  <g filter="url(#panShadow)" transform="translate(10, 0)">
    <!-- Pan Body (Angled Oval Wok) -->
    <ellipse cx="370" cy="145" rx="80" ry="42" fill="#18181B" transform="rotate(-18, 370, 145)" />
    <!-- Pan Inner Rim Highlight -->
    <ellipse cx="368" cy="143" rx="72" ry="36" fill="none" stroke="#3F3F46" stroke-width="3" transform="rotate(-18, 368, 143)" />
    <!-- Pan Handle (Extending Right-Up) -->
    <path d="M 438 128 L 490 108 C 498 105 506 112 502 120 L 448 142 Z" fill="#18181B" />
    <path d="M 445 130 L 485 114" stroke="#52525B" stroke-width="3" stroke-linecap="round" />
  </g>

  <!-- Main Brand Title Group -->
  <g filter="url(#softShadow)">
    <!-- "ครัว" (Black Stylized Thai Font) -->
    <text x="110" y="225" font-family="'Sukhumvit Set', 'Kanit', 'Prompt', 'Thonburi', sans-serif" font-weight="900" font-size="112" fill="#18181B" letter-spacing="-2">ครัว</text>

    <!-- Red Chili Pepper & Basil Leaves Accent -->
    <g transform="translate(265, 175) rotate(-15)">
      <!-- Chili Pepper -->
      <path d="M 10 35 C 35 10 75 15 105 38 C 95 55 60 55 25 46 Z" fill="url(#chiliRed)" />
      <path d="M 8 32 C 2 28 -2 20 2 12 C 6 22 12 28 16 32 Z" fill="#15803D" />
      <circle cx="12" cy="33" r="5" fill="#16A34A" />

      <!-- Basil Leaves -->
      <path d="M 75 15 C 95 -10 120 0 115 25 C 100 40 75 30 75 15 Z" fill="url(#basilGreen)" />
      <path d="M 78 16 Q 95 8 112 22" stroke="#86EFAC" stroke-width="2.5" fill="none" />

      <path d="M 85 30 C 105 15 125 25 120 45 C 105 55 85 45 85 30 Z" fill="url(#basilGreen)" />
      <path d="M 88 31 Q 102 24 118 42" stroke="#86EFAC" stroke-width="2" fill="none" />
    </g>

    <!-- "กะเพรา" (Dark Emerald Green Stylized Thai Font) -->
    <text x="60" y="345" font-family="'Sukhumvit Set', 'Kanit', 'Prompt', 'Thonburi', sans-serif" font-weight="900" font-size="120" fill="url(#krapaoTextGreen)" letter-spacing="-2">กะเพรา</text>
  </g>

  <!-- Decorative Separator Line -->
  <path d="M 80 380 L 432 380" stroke="#78350F" stroke-width="3" stroke-dasharray="8 6" opacity="0.3" />

  <!-- Tagline / Slogan: "อร่อยจัดจ้าน ถึงเครื่อง ถึงใจ" -->
  <g font-family="'Kanit', 'Prompt', 'Sukhumvit Set', sans-serif" text-anchor="middle">
    <text x="256" y="425" font-weight="800" font-size="34" fill="#451A03" letter-spacing="1">
      อร่อยจัดจ้าน ถึงเครื่อง ถึงใจ
    </text>
    <text x="256" y="465" font-weight="700" font-size="18" fill="#B45309" letter-spacing="4">
      KAPRAO KITCHEN POS
    </text>
  </g>
</svg>
